<svg viewBox="0 0 194 194" fill="currentColor" xmlns="http://www.w3.org/2000/svg">
<g clip-path="url(#clip0_61_79)">
<path d="M99.709 47.2083C99.709 34.7211 104.67 22.7452 113.499 13.9154C122.329 5.08555 134.305 0.125 146.792 0.125C159.28 0.125 171.255 5.08555 180.085 13.9154C188.915 22.7452 193.876 34.7211 193.876 47.2083C193.876 59.6956 188.915 71.6714 180.085 80.5013C171.255 89.3311 159.28 94.2917 146.792 94.2917C134.305 94.2917 122.329 89.3311 113.499 80.5013C104.67 71.6714 99.709 59.6956 99.709 47.2083ZM0.833984 4.83333H85.584V89.5833H0.833984V4.83333ZM0.833984 108.417H85.584V193.167H0.833984V108.417ZM104.417 108.417H189.167V193.167H104.417V108.417Z" fill="currentColor"/>
</g>
<defs>
<clipPath id="clip0_61_79">
<rect width="194" height="194" fill="white"/>
</clipPath>
</defs>
</svg>
