<svg  viewBox="0 0 258 186" fill="currentColor" xmlns="http://www.w3.org/2000/svg">
<g clip-path="url(#clip0_61_81)">
<path fill-rule="evenodd" clip-rule="evenodd" d="M9.74799 55.3339L1.12857 132.909C-0.110847 143.978 2.58576 155.129 8.74557 164.409C14.9054 173.689 24.1352 180.504 34.8168 183.659C45.4984 186.815 56.95 186.11 67.1637 181.667C77.3774 177.225 85.7013 169.329 90.676 159.364L98.1434 144.429H159.858L167.325 159.364C172.3 169.329 180.624 177.225 190.837 181.667C201.051 186.11 212.503 186.815 223.184 183.659C233.866 180.504 243.096 173.689 249.256 164.409C255.415 155.129 258.112 143.978 256.873 132.909L248.233 55.3339C246.557 40.2439 239.379 26.3009 228.069 16.1715C216.759 6.04215 202.112 0.437234 186.93 0.428711H71.1126C55.9228 0.427111 41.266 6.02747 29.9476 16.1578C18.6293 26.2882 11.4445 40.2368 9.76857 55.3339M75.0211 39.0001C82.1183 39.0001 87.8783 44.7601 87.8783 51.8573V63.007H99.028C102.438 63.007 105.708 64.3616 108.119 66.7728C110.531 69.184 111.885 72.4542 111.885 75.8641C111.885 79.2741 110.531 82.5443 108.119 84.9555C105.708 87.3667 102.438 88.7213 99.028 88.7213H87.8577V99.8504C87.8577 103.26 86.5031 106.531 84.0919 108.942C81.6808 111.353 78.4105 112.708 75.0006 112.708C71.5906 112.708 68.3204 111.353 65.9092 108.942C63.498 106.531 62.1434 103.26 62.1434 99.8504V88.7213H50.9937C47.5838 88.7213 44.3135 87.3667 41.9023 84.9555C39.4912 82.5443 38.1366 79.2741 38.1366 75.8641C38.1366 72.4542 39.4912 69.184 41.9023 66.7728C44.3135 64.3616 47.5838 63.007 50.9937 63.007H62.1434V51.8573C62.1434 44.7601 67.924 39.0001 75.0211 39.0001ZM175.595 101.578C179.005 101.578 182.275 100.224 184.686 97.8127C187.097 95.4015 188.452 92.1312 188.452 88.7213C188.452 85.3114 187.097 82.0411 184.686 79.6299C182.275 77.2187 179.005 75.8641 175.595 75.8641C172.185 75.8641 168.915 77.2187 166.503 79.6299C164.092 82.0411 162.738 85.3114 162.738 88.7213C162.738 92.1312 164.092 95.4015 166.503 97.8127C168.915 100.224 172.185 101.578 175.595 101.578ZM214.187 56.8356C214.187 60.2455 212.832 63.5158 210.421 65.9269C208.01 68.3381 204.74 69.6927 201.33 69.6927C197.92 69.6927 194.65 68.3381 192.238 65.9269C189.827 63.5158 188.473 60.2455 188.473 56.8356C188.473 53.4256 189.827 50.1554 192.238 47.7442C194.65 45.333 197.92 43.9784 201.33 43.9784C204.74 43.9784 208.01 45.333 210.421 47.7442C212.832 50.1554 214.187 53.4256 214.187 56.8356Z" fill="currentColor"/>
</g>
<defs>
<clipPath id="clip0_61_81">
<rect width="258" height="186" fill="white"/>
</clipPath>
</defs>
</svg>
