<svg viewBox="0 0 208 210" fill="currentColor" xmlns="http://www.w3.org/2000/svg">
<g clip-path="url(#clip0_61_75)">
<path fill-rule="evenodd" clip-rule="evenodd" d="M75.0137 5.10055C54.9122 10.9561 37.0421 22.7343 23.735 38.8985C10.4278 55.0626 2.30144 74.8623 0.416016 95.7143H47.9589C50.7302 63.9831 59.9302 33.1478 74.9989 5.08569M47.9589 114.286H0.416016C2.29752 135.138 10.4204 154.94 23.725 171.107C37.0295 187.274 54.8979 199.055 74.9989 204.914C59.9302 176.852 50.7302 146.017 47.9589 114.286ZM98.8297 208.881C80.8166 180.312 69.7728 147.909 66.5897 114.286H141.395C138.212 147.909 127.169 180.312 109.155 208.881C105.716 209.052 102.27 209.052 98.8297 208.881ZM133.001 204.899C153.1 199.041 170.967 187.262 184.271 171.098C197.575 154.934 205.7 135.136 207.584 114.286H160.041C157.27 146.017 148.07 176.852 133.001 204.914M160.041 95.7291H207.584C205.703 74.8764 197.58 55.0748 184.275 38.9079C170.971 22.7411 153.102 10.9596 133.001 5.10055C148.07 33.1627 157.27 63.9979 160.041 95.7291ZM98.8297 1.11883C102.274 0.947368 105.726 0.947368 109.17 1.11883C127.178 29.6889 138.217 62.0924 141.395 95.7143H66.6046C69.8286 61.8845 80.8972 29.4514 98.8297 1.11883Z" fill="currentColor"/>
</g>
<defs>
<clipPath id="clip0_61_75">
<rect width="208" height="210" fill="white"/>
</clipPath>
</defs>
</svg>
