<svg width="52" height="54" viewBox="0 0 52 54" fill="none" xmlns="http://www.w3.org/2000/svg">
<g clip-path="url(#clip0_23_2)">
<path d="M19.366 28.4748H12.076C11.5645 28.4748 11.074 28.2716 10.7123 27.91C10.3506 27.5483 10.1475 27.0577 10.1475 26.5462C10.1475 26.0348 10.3506 25.5442 10.7123 25.1825C11.074 24.8209 11.5645 24.6177 12.076 24.6177H19.366C19.8775 24.6177 20.3681 24.8209 20.7297 25.1825C21.0914 25.5442 21.2946 26.0348 21.2946 26.5462C21.2946 27.0577 21.0914 27.5483 20.7297 27.91C20.3681 28.2716 19.8775 28.4748 19.366 28.4748Z" fill="#05B2D2"/>
<path d="M15.7235 32.1221C15.4702 32.1221 15.2194 32.0722 14.9855 31.9753C14.7515 31.8783 14.5389 31.7363 14.3598 31.5572C14.1807 31.3781 14.0386 31.1655 13.9417 30.9315C13.8448 30.6975 13.7949 30.4468 13.7949 30.1935V22.8973C13.7949 22.3858 13.9981 21.8953 14.3598 21.5336C14.7215 21.1719 15.212 20.9688 15.7235 20.9688C16.235 20.9688 16.7255 21.1719 17.0872 21.5336C17.4489 21.8953 17.6521 22.3858 17.6521 22.8973V30.1935C17.6521 30.4468 17.6022 30.6975 17.5053 30.9315C17.4083 31.1655 17.2663 31.3781 17.0872 31.5572C16.9081 31.7363 16.6955 31.8783 16.4615 31.9753C16.2275 32.0722 15.9768 32.1221 15.7235 32.1221Z" fill="#05B2D2"/>
<path d="M31.3285 28.5661C31.8267 28.5462 32.2978 28.3343 32.6432 27.9748C32.9886 27.6153 33.1815 27.1361 33.1815 26.6376C33.1815 26.139 32.9886 25.6598 32.6432 25.3003C32.2978 24.9408 31.8267 24.7289 31.3285 24.709C30.8304 24.7289 30.3593 24.9408 30.0139 25.3003C29.6685 25.6598 29.4756 26.139 29.4756 26.6376C29.4756 27.1361 29.6685 27.6153 30.0139 27.9748C30.3593 28.3343 30.8304 28.5462 31.3285 28.5661Z" fill="#E02422"/>
<path d="M35.7201 24.1765C36.2183 24.1565 36.6894 23.9446 37.0348 23.5851C37.3802 23.2256 37.5731 22.7464 37.5731 22.2479C37.5731 21.7494 37.3802 21.2702 37.0348 20.9107C36.6894 20.5512 36.2183 20.3393 35.7201 20.3193C35.222 20.3393 34.7509 20.5512 34.4055 20.9107C34.0601 21.2702 33.8672 21.7494 33.8672 22.2479C33.8672 22.7464 34.0601 23.2256 34.4055 23.5851C34.7509 23.9446 35.222 24.1565 35.7201 24.1765Z" fill="#E02422"/>
<path d="M35.5346 32.7717C36.0327 32.7518 36.5038 32.5399 36.8492 32.1804C37.1947 31.8209 37.3876 31.3417 37.3876 30.8431C37.3876 30.3446 37.1947 29.8654 36.8492 29.5059C36.5038 29.1464 36.0327 28.9345 35.5346 28.9146C35.0365 28.9345 34.5653 29.1464 34.2199 29.5059C33.8745 29.8654 33.6816 30.3446 33.6816 30.8431C33.6816 31.3417 33.8745 31.8209 34.2199 32.1804C34.5653 32.5399 35.0365 32.7518 35.5346 32.7717Z" fill="#E02422"/>
<path d="M39.9242 28.3884C40.4224 28.3685 40.8935 28.1566 41.2389 27.7971C41.5843 27.4376 41.7772 26.9584 41.7772 26.4598C41.7772 25.9613 41.5843 25.4821 41.2389 25.1226C40.8935 24.7631 40.4224 24.5512 39.9242 24.5312C39.4261 24.5512 38.955 24.7631 38.6096 25.1226C38.2642 25.4821 38.0713 25.9613 38.0713 26.4598C38.0713 26.9584 38.2642 27.4376 38.6096 27.7971C38.955 28.1566 39.4261 28.3685 39.9242 28.3884Z" fill="#E02422"/>
<path d="M43.5666 53.6143C41.891 53.618 40.2617 53.0649 38.9347 52.0419C37.6076 51.019 36.658 49.5841 36.235 47.9628L34.075 41.6371C28.7891 42.9954 23.2414 42.9592 17.9737 41.5322L15.7273 48.1001C15.3072 49.6696 14.3748 51.0538 13.0782 52.0329C11.9635 52.8925 10.6311 53.4241 9.23074 53.568C7.83043 53.712 6.41773 53.4625 5.15143 52.8476C3.88513 52.2327 2.81543 51.2768 2.06256 50.0874C1.30969 48.8979 0.903502 47.5221 0.889648 46.1145V29.6229C0.889648 29.1446 0.948277 28.2837 0.972963 27.9566L0.892734 26.4986C0.884616 24.3708 1.29598 22.2623 2.10331 20.2937C2.91063 18.325 4.09808 16.5348 5.59776 15.0254C7.09745 13.5159 8.87994 12.3169 10.8433 11.4969C12.8067 10.6768 14.9125 10.2518 17.0403 10.2461C19.0063 10.2419 20.9563 10.6007 22.792 11.3045C23.47 11.5542 24.188 11.6771 24.9104 11.6671H27.0889C27.8003 11.6797 28.508 11.5609 29.1764 11.3169C31.1141 10.5677 33.1797 10.205 35.2568 10.2492C39.5462 10.407 43.6045 12.2333 46.5673 15.339C49.5301 18.4447 51.1632 22.5845 51.1189 26.8766V46.1191C51.1095 48.114 50.309 50.0236 48.8931 51.4288C47.4771 52.834 45.5615 53.62 43.5666 53.6143ZM35.2568 37.2461C35.659 37.2468 36.051 37.3729 36.3781 37.6068C36.7053 37.8408 36.9513 38.171 37.082 38.5514L39.9224 46.8581C40.1159 47.6796 40.58 48.4121 41.2401 48.9379C41.9003 49.4638 42.7181 49.7523 43.562 49.7572C44.5341 49.7637 45.4692 49.3844 46.1619 48.7023C46.8547 48.0203 47.2486 47.0912 47.2571 46.1191V26.8766C47.3058 23.5952 46.0718 20.4245 43.8178 18.0394C41.5637 15.6542 38.4678 14.2431 35.1889 14.1064C33.6079 14.0683 32.0349 14.343 30.5603 14.9148C29.448 15.3305 28.2685 15.5371 27.0812 15.5242H24.9104C23.7155 15.5351 22.5288 15.3259 21.4096 14.9071C20.015 14.3728 18.5337 14.1008 17.0403 14.1048C13.7803 14.1064 10.6541 15.4012 8.34763 17.7051C6.04117 20.0089 4.74285 23.1337 4.73753 26.3937L4.82085 27.8671C4.82627 27.9699 4.82627 28.0729 4.82085 28.1757C4.80388 28.3932 4.74371 29.194 4.74371 29.6229V46.1191C4.75746 46.8056 4.96137 47.4749 5.33276 48.0525C5.70414 48.63 6.22845 49.0933 6.84738 49.3907C7.46631 49.688 8.15559 49.8079 8.83859 49.737C9.52158 49.6661 10.1715 49.4071 10.7161 48.9888C11.3679 48.4934 11.8329 47.7919 12.0352 46.9985L14.9188 38.5514C15.0011 38.3115 15.1299 38.0903 15.2977 37.9002C15.4656 37.7102 15.6692 37.555 15.897 37.4437C16.1249 37.3324 16.3724 37.267 16.6254 37.2514C16.8785 37.2358 17.1322 37.2701 17.372 37.3526C17.4676 37.3834 26.8683 40.554 34.5332 37.3912C34.7628 37.2966 35.0085 37.2473 35.2568 37.2461Z" fill="black"/>
<path d="M27.2245 11.2027C27.0454 10.9367 26.9366 10.6297 26.9082 10.3102C26.8799 9.99076 26.933 9.66934 27.0625 9.37597C27.2978 8.69255 27.7783 8.12077 28.411 7.7714C30.1823 6.98085 32.1874 6.89099 34.0224 7.51991C36.3161 8.2688 38.7763 8.34483 41.1118 7.739C42.2605 7.37089 43.2622 6.64681 43.972 5.67157C44.6818 4.69632 45.0628 3.52051 45.06 2.31431C45.0489 1.80524 44.8413 1.32018 44.4807 0.960696C44.1201 0.601215 43.6343 0.395184 43.1252 0.385742C42.6152 0.390569 42.1275 0.595307 41.7669 0.955943C41.4062 1.31658 41.2015 1.80432 41.1967 2.31431C41.2985 4.23363 38.7929 4.44037 37.3395 4.26757C34.9111 3.9806 32.6353 3.04563 30.1452 3.31563C28.9499 3.38861 27.7863 3.72915 26.7403 4.31211C25.6943 4.89506 24.7926 5.70554 24.1018 6.68368C23.4689 7.63498 23.1139 8.74392 23.0765 9.8859C23.0392 11.0279 23.321 12.1576 23.8904 13.1483C25.1803 15.2651 28.519 13.3288 27.2199 11.2027H27.2245Z" fill="black"/>
</g>
<defs>
<clipPath id="clip0_23_2">
<rect width="52" height="54" fill="white"/>
</clipPath>
</defs>
</svg>
