<svg width="800" height="800" viewBox="0 0 800 800" fill="none" xmlns="http://www.w3.org/2000/svg">
<path d="M301.714 421.851H193.715C186.137 421.851 178.87 418.841 173.511 413.483C168.153 408.125 165.143 400.858 165.143 393.28C165.143 385.702 168.153 378.435 173.511 373.077C178.87 367.719 186.137 364.708 193.715 364.708H301.714C309.292 364.708 316.559 367.719 321.918 373.077C327.276 378.435 330.286 385.702 330.286 393.28C330.286 400.858 327.276 408.125 321.918 413.483C316.559 418.841 309.292 421.851 301.714 421.851Z" fill="#05B2D2"/>
<path d="M247.749 475.886C243.997 475.886 240.281 475.147 236.815 473.711C233.348 472.275 230.199 470.17 227.546 467.517C224.893 464.864 222.788 461.715 221.352 458.248C219.916 454.782 219.177 451.066 219.177 447.314V339.223C219.177 331.645 222.187 324.378 227.546 319.02C232.904 313.662 240.171 310.651 247.749 310.651C255.326 310.651 262.594 313.662 267.952 319.02C273.31 324.378 276.32 331.645 276.32 339.223V447.314C276.32 451.066 275.581 454.782 274.145 458.248C272.709 461.715 270.605 464.864 267.952 467.517C265.299 470.17 262.149 472.275 258.682 473.711C255.216 475.147 251.501 475.886 247.749 475.886Z" fill="#05B2D2"/>
<path d="M478.949 423.2C486.329 422.905 493.308 419.765 498.425 414.44C503.542 409.114 506.4 402.014 506.4 394.629C506.4 387.243 503.542 380.144 498.425 374.818C493.308 369.492 486.329 366.352 478.949 366.057C471.569 366.352 464.59 369.492 459.472 374.818C454.355 380.144 451.498 387.243 451.498 394.629C451.498 402.014 454.355 409.114 459.472 414.44C464.59 419.765 471.569 422.905 478.949 423.2Z" fill="#E02422"/>
<path d="M544 358.171C551.38 357.876 558.359 354.737 563.476 349.411C568.593 344.085 571.451 336.986 571.451 329.6C571.451 322.214 568.593 315.115 563.476 309.789C558.359 304.463 551.38 301.324 544 301.029C536.62 301.324 529.641 304.463 524.524 309.789C519.407 315.115 516.549 322.214 516.549 329.6C516.549 336.986 519.407 344.085 524.524 349.411C529.641 354.737 536.62 357.876 544 358.171Z" fill="#E02422"/>
<path d="M541.257 485.509C548.637 485.213 555.616 482.074 560.733 476.748C565.85 471.422 568.708 464.323 568.708 456.937C568.708 449.551 565.85 442.452 560.733 437.126C555.616 431.8 548.637 428.661 541.257 428.366C533.877 428.661 526.898 431.8 521.781 437.126C516.663 442.452 513.806 449.551 513.806 456.937C513.806 464.323 516.663 471.422 521.781 476.748C526.898 482.074 533.877 485.213 541.257 485.509Z" fill="#E02422"/>
<path d="M606.286 420.571C613.666 420.276 620.645 417.137 625.762 411.811C630.879 406.485 633.737 399.386 633.737 392C633.737 384.614 630.879 377.515 625.762 372.189C620.645 366.863 613.666 363.724 606.286 363.428C598.906 363.724 591.926 366.863 586.809 372.189C581.692 377.515 578.834 384.614 578.834 392C578.834 399.386 581.692 406.485 586.809 411.811C591.926 417.137 598.906 420.276 606.286 420.571Z" fill="#E02422"/>
<path d="M660.251 794.286C635.428 794.34 611.29 786.146 591.63 770.991C571.969 755.836 557.901 734.579 551.634 710.56L519.634 616.846C441.326 636.969 359.137 636.433 281.097 615.291L247.817 712.594C241.593 735.846 227.78 756.352 208.571 770.857C192.057 783.592 172.317 791.468 151.572 793.601C130.826 795.733 109.897 792.037 91.1375 782.927C72.3775 773.818 56.53 759.657 45.3765 742.035C34.2229 724.414 28.2052 704.031 28 683.177V438.857C28 431.771 28.8686 419.017 29.2343 414.171L28.0457 392.571C27.9254 361.049 34.0197 329.812 45.9801 300.647C57.9405 271.481 75.5323 244.96 97.7499 222.598C119.967 200.236 146.375 182.473 175.462 170.324C204.549 158.175 235.746 151.878 267.269 151.794C296.395 151.731 325.284 157.047 352.48 167.474C362.523 171.173 373.161 172.993 383.863 172.846H416.137C426.677 173.032 437.161 171.273 447.063 167.657C475.77 156.559 506.372 151.185 537.143 151.84C600.689 154.178 660.812 181.234 704.705 227.245C748.599 273.255 772.794 334.585 772.137 398.171V683.246C771.998 712.799 760.138 741.09 739.162 761.908C718.185 782.726 689.805 794.371 660.251 794.286ZM537.143 551.794C543.101 551.804 548.909 553.672 553.756 557.138C558.602 560.604 562.247 565.496 564.183 571.131L606.263 694.194C609.129 706.364 616.005 717.217 625.785 725.006C635.565 732.796 647.68 737.071 660.183 737.143C674.585 737.24 688.438 731.62 698.701 721.516C708.964 711.411 714.799 697.648 714.926 683.246V398.171C715.647 349.559 697.365 302.585 663.972 267.25C630.579 231.914 584.713 211.008 536.137 208.983C512.714 208.419 489.411 212.489 467.566 220.96C451.087 227.118 433.613 230.179 416.023 229.989H383.863C366.161 230.149 348.58 227.05 332 220.846C311.339 212.931 289.394 208.901 267.269 208.96C218.972 208.984 172.658 228.166 138.489 262.298C104.319 296.429 85.0844 342.721 85.0057 391.017L86.24 412.846C86.3203 414.368 86.3203 415.894 86.24 417.417C85.9886 420.64 85.0971 432.503 85.0971 438.857V683.246C85.3009 693.417 88.3218 703.332 93.8238 711.888C99.3258 720.445 107.093 727.307 116.263 731.713C125.432 736.119 135.644 737.895 145.762 736.844C155.88 735.793 165.509 731.956 173.577 725.76C183.234 718.42 190.122 708.028 193.12 696.274L235.84 571.131C237.059 567.578 238.967 564.3 241.453 561.485C243.94 558.669 246.957 556.371 250.332 554.722C253.707 553.072 257.374 552.104 261.123 551.872C264.872 551.641 268.63 552.15 272.183 553.371C273.6 553.829 412.869 600.8 526.423 553.943C529.824 552.542 533.464 551.812 537.143 551.794Z" fill="black"/>
<path d="M418.149 165.966C415.495 162.025 413.882 157.476 413.463 152.744C413.043 148.011 413.829 143.249 415.749 138.903C419.233 128.778 426.352 120.307 435.726 115.132C461.968 103.42 491.673 102.088 518.857 111.406C552.838 122.5 589.285 123.627 623.886 114.651C640.903 109.198 655.743 98.4709 666.259 84.0228C676.774 69.5748 682.42 52.1553 682.377 34.2858C682.213 26.7439 679.138 19.5578 673.795 14.2322C668.453 8.90654 661.257 5.85424 653.715 5.71436C646.159 5.78586 638.933 8.81902 633.591 14.1618C628.248 19.5045 625.215 26.7303 625.143 34.2858C626.652 62.7201 589.532 65.7829 568 63.2229C532.023 58.9715 498.309 45.1201 461.417 49.1201C443.71 50.2013 426.471 55.2464 410.975 63.8828C395.478 72.5191 382.12 84.5262 371.886 99.0172C362.51 113.111 357.25 129.539 356.697 146.457C356.143 163.376 360.319 180.113 368.754 194.789C387.863 226.149 437.326 197.463 418.08 165.966H418.149Z" fill="black"/>
</svg>
