<svg width="24" height="24" viewBox="0 0 24 24" fill="none" xmlns="http://www.w3.org/2000/svg">
<path d="M12 7H6C4.89543 7 4 7.89543 4 9V19C4 20.1046 4.89543 21 6 21H12C13.1046 21 14 20.1046 14 19V9C14 7.89543 13.1046 7 12 7Z" stroke="#E02422" stroke-width="0.8" stroke-linecap="round" stroke-linejoin="round"/>
<path d="M5 4C5 3.46957 5.21071 2.96086 5.58579 2.58579C5.96086 2.21071 6.46957 2 7 2H19C19.5304 2 20.0391 2.21071 20.4142 2.58579C20.7893 2.96086 21 3.46957 21 4V20C21 20.5304 20.7893 21.0391 20.4142 21.4142C20.0391 21.7893 19.5304 22 19 22H15" stroke="black" stroke-width="1.5" stroke-linecap="round" stroke-linejoin="round"/>
<path d="M9 18H9.01" stroke="#05B2D2" stroke-width="1.5" stroke-linecap="round" stroke-linejoin="round"/>
</svg>
