<svg width="19" height="22" viewBox="0 0 19 22" fill="none" xmlns="http://www.w3.org/2000/svg">
<g clip-path="url(#clip0_28_47)">
<path d="M9 6H3C1.89543 6 1 6.89543 1 8V18C1 19.1046 1.89543 20 3 20H9C10.1046 20 11 19.1046 11 18V8C11 6.89543 10.1046 6 9 6Z" stroke="#E02422" stroke-width="0.8" stroke-linecap="round" stroke-linejoin="round"/>
<path d="M2 3C2 2.46957 2.21071 1.96086 2.58579 1.58579C2.96086 1.21071 3.46957 1 4 1H16C16.5304 1 17.0391 1.21071 17.4142 1.58579C17.7893 1.96086 18 2.46957 18 3V19C18 19.5304 17.7893 20.0391 17.4142 20.4142C17.0391 20.7893 16.5304 21 16 21H12" stroke="black" stroke-width="1.5" stroke-linecap="round" stroke-linejoin="round"/>
<path d="M6 17H6.01" stroke="#05B2D2" stroke-width="1.5" stroke-linecap="round" stroke-linejoin="round"/>
</g>
<defs>
<clipPath id="clip0_28_47">
<rect width="19" height="22" fill="white"/>
</clipPath>
</defs>
</svg>
